
      <svg data-logo="logo" xmlns="http://www.w3.org/2000/svg" viewBox="0 0 213.1699981689453 41" width="213.1699981689453" height="41">
        <g id="logogram" transform="
    translate(0, 0.5)
    rotate(0 27 20)
    
  "><path d="M26 0H38V12H26V0Z" fill="#FEC147"/><path d="M38 12H54V28H38V12Z" fill="#F45643"/><path d="M26 28H38V40H26V28Z" fill="#F45643"/><path d="M16 12H26V22H16V12Z" fill="#207AE6"/><path d="M8 22H16V30H8V22Z" fill="#207AE6"/><path d="M6 2H16V12H6V2Z" fill="#42C046"/><path d="M0 12H6V18H0V12Z" fill="#42C046"/></g>
        <g id="logotype" transform="translate(60, 3.875)"><path fill="#4f46e5" d="M13.56 28L8.31 28L8.31 9.24L13.04 9.24L13.25 14.73L12.58 14.56Q12.86 12.46 13.72 11.20Q14.58 9.94 15.87 9.38Q17.16 8.82 18.71 8.82L18.71 8.82Q20.73 8.82 22.15 9.69Q23.57 10.57 24.32 12.16Q25.08 13.75 25.08 15.92L25.08 15.92L25.08 28L19.83 28L19.83 17.67Q19.83 16.17 19.58 15.12Q19.34 14.07 18.71 13.53Q18.08 12.98 16.96 12.98L16.96 12.98Q15.31 12.98 14.44 14.19Q13.56 15.40 13.56 17.67L13.56 17.67L13.56 28ZM36.63 28.42L36.63 28.42Q33.76 28.42 31.64 27.21Q29.52 26.00 28.35 23.80Q27.18 21.59 27.18 18.62L27.18 18.62Q27.18 15.64 28.35 13.46Q29.52 11.27 31.62 10.04Q33.72 8.82 36.59 8.82L36.59 8.82Q39.39 8.82 41.45 10.04Q43.52 11.27 44.66 13.54Q45.80 15.82 45.80 18.97L45.80 18.97L45.80 20.02L32.60 20.02Q32.70 22.26 33.81 23.34Q34.91 24.43 36.73 24.43L36.73 24.43Q38.06 24.43 38.95 23.87Q39.84 23.31 40.23 22.16L40.23 22.16L45.52 22.47Q44.78 25.27 42.40 26.84Q40.02 28.42 36.63 28.42ZM32.60 16.80L32.60 16.80L40.41 16.80Q40.30 14.73 39.27 13.72Q38.23 12.70 36.59 12.70L36.59 12.70Q34.95 12.70 33.88 13.77Q32.81 14.84 32.60 16.80ZM51.08 28L45.41 28L52.10 18.48L45.59 9.24L51.15 9.24L55.18 15.26L59.06 9.24L64.77 9.24L58.29 18.52L64.94 28L59.38 28L55.25 21.63L51.08 28ZM78.45 28L73.90 28Q71.00 28 69.63 26.65Q68.27 25.30 68.27 22.36L68.27 22.36L68.27 4.83L73.52 4.83L73.52 21.73Q73.52 23.10 74.09 23.59Q74.67 24.08 75.83 24.08L75.83 24.08L78.45 24.08L78.45 28ZM78.45 13.16L65.26 13.16L65.26 9.24L78.45 9.24L78.45 13.16ZM90.81 19.95L78.80 19.95L78.80 15.64L90.81 15.64L90.81 19.95ZM98.93 28.42L98.93 28.42Q96.02 28.42 94.18 27.07Q92.35 25.73 92.35 23.31L92.35 23.31Q92.35 20.82 93.90 19.48Q95.46 18.13 98.51 17.50L98.51 17.50L104.56 16.31Q104.56 14.49 103.74 13.56Q102.92 12.63 101.38 12.63L101.38 12.63Q99.87 12.63 99.03 13.32Q98.19 14.00 97.95 15.33L97.95 15.33L92.66 15.08Q93.19 12.00 95.44 10.41Q97.70 8.82 101.38 8.82L101.38 8.82Q105.58 8.82 107.69 10.81Q109.81 12.81 109.81 16.66L109.81 16.66L109.81 23.06Q109.81 23.87 110.07 24.13Q110.34 24.39 110.86 24.39L110.86 24.39L111.39 24.39L111.39 28Q111.14 28.07 110.60 28.14Q110.06 28.21 109.53 28.21L109.53 28.21Q108.41 28.21 107.45 27.82Q106.49 27.44 105.89 26.51Q105.30 25.59 105.30 23.87L105.30 23.87L105.75 24.22Q105.40 25.48 104.51 26.43Q103.62 27.37 102.20 27.89Q100.78 28.42 98.93 28.42ZM100.19 24.81L100.19 24.81Q101.48 24.81 102.46 24.31Q103.44 23.80 104.00 22.82Q104.56 21.84 104.56 20.51L104.56 20.51L104.56 19.60L100.29 20.51Q99.03 20.75 98.38 21.33Q97.74 21.91 97.74 22.82L97.74 22.82Q97.74 23.77 98.37 24.29Q99.00 24.81 100.19 24.81ZM118.35 33.25L113.10 33.25L113.10 9.24L118.14 9.24L118.25 13.19L117.83 13.02Q118.53 10.99 120.10 9.90Q121.68 8.82 123.78 8.82L123.78 8.82Q126.40 8.82 128.15 10.11Q129.90 11.41 130.79 13.63Q131.69 15.85 131.69 18.62L131.69 18.62Q131.69 21.35 130.79 23.59Q129.90 25.83 128.13 27.13Q126.37 28.42 123.74 28.42L123.74 28.42Q122.38 28.42 121.19 27.91Q120.00 27.41 119.14 26.50Q118.28 25.59 117.90 24.32L117.90 24.32L118.35 24.04L118.35 33.25ZM122.31 24.39L122.31 24.39Q124.16 24.39 125.23 22.86Q126.30 21.31 126.30 18.62L126.30 18.62Q126.30 15.92 125.23 14.38Q124.16 12.84 122.31 12.84L122.31 12.84Q121.08 12.84 120.19 13.49Q119.30 14.14 118.82 15.43Q118.35 16.73 118.35 18.62L118.35 18.62Q118.35 20.51 118.82 21.80Q119.30 23.10 120.19 23.75Q121.08 24.39 122.31 24.39ZM139.14 33.25L133.89 33.25L133.89 9.24L138.93 9.24L139.04 13.19L138.62 13.02Q139.32 10.99 140.89 9.90Q142.47 8.82 144.57 8.82L144.57 8.82Q147.19 8.82 148.94 10.11Q150.69 11.41 151.58 13.63Q152.48 15.85 152.48 18.62L152.48 18.62Q152.48 21.35 151.58 23.59Q150.69 25.83 148.92 27.13Q147.16 28.42 144.53 28.42L144.53 28.42Q143.17 28.42 141.98 27.91Q140.79 27.41 139.93 26.50Q139.07 25.59 138.69 24.32L138.69 24.32L139.14 24.04L139.14 33.25ZM143.10 24.39L143.10 24.39Q144.95 24.39 146.02 22.86Q147.09 21.31 147.09 18.62L147.09 18.62Q147.09 15.92 146.02 14.38Q144.95 12.84 143.10 12.84L143.10 12.84Q141.87 12.84 140.98 13.49Q140.09 14.14 139.61 15.43Q139.14 16.73 139.14 18.62L139.14 18.62Q139.14 20.51 139.61 21.80Q140.09 23.10 140.98 23.75Q141.87 24.39 143.10 24.39Z"/></g>
        
      </svg>
    